<?xml version="1.0" standalone="no"?>
<!DOCTYPE svg PUBLIC "-//W3C//DTD SVG 20010904//EN"
 "http://www.w3.org/TR/2001/REC-SVG-20010904/DTD/svg10.dtd">
<svg version="1.0" xmlns="http://www.w3.org/2000/svg"
 width="512.000000pt" height="512.000000pt" viewBox="0 0 512.000000 512.000000"
 preserveAspectRatio="xMidYMid meet">
<metadata>
Created by potrace 1.14, written by Peter Selinger 2001-2017
</metadata>
<g transform="translate(0.000000,512.000000) scale(0.100000,-0.100000)"
fill="#000000" stroke="none">
<path d="M0 2560 l0 -2560 2560 0 2560 0 0 2560 0 2560 -2560 0 -2560 0 0
-2560z m1061 1541 c58 -59 43 -90 -144 -288 -130 -138 -185 -207 -245 -305
-243 -397 -318 -879 -216 -1382 29 -145 80 -296 144 -432 83 -177 179 -311
359 -502 145 -156 159 -192 97 -259 -30 -33 -39 -37 -76 -36 -60 3 -122 43
-226 147 -144 145 -307 376 -394 558 -129 271 -190 578 -192 968 -3 461 96
787 341 1120 273 372 455 508 552 411z m3166 3 c150 -74 456 -454 574 -712
118 -258 163 -486 161 -820 -1 -399 -68 -720 -205 -997 -83 -167 -246 -393
-382 -531 -103 -104 -165 -144 -225 -147 -37 -1 -46 3 -76 36 -62 68 -48 104
101 263 188 201 294 353 377 547 176 406 214 870 107 1289 -79 311 -219 551
-485 828 -55 58 -108 116 -117 130 -26 37 -21 77 12 111 38 37 88 39 158 3z
m-1565 -393 c174 -186 293 -417 339 -659 17 -91 6 -273 -26 -421 -32 -152 -30
-171 25 -171 55 0 99 41 169 161 l57 98 62 -93 c71 -106 140 -249 171 -351 97
-328 -2 -660 -285 -955 -83 -86 -214 -200 -214 -186 0 3 23 34 51 68 59 73
129 200 154 278 26 80 24 177 -6 237 -21 43 -27 48 -54 46 -196 -15 -266 -5
-341 49 -84 60 -124 197 -103 359 26 211 30 290 19 386 -11 93 -48 225 -68
245 -6 6 -28 -23 -57 -79 -70 -129 -139 -243 -225 -373 -153 -229 -255 -429
-307 -597 -23 -77 -27 -105 -27 -233 -1 -130 1 -152 23 -208 15 -41 42 -83 74
-118 27 -30 46 -54 42 -54 -30 0 -247 209 -322 310 -135 181 -201 418 -173
618 25 183 91 330 273 607 274 418 389 648 456 912 25 98 41 263 32 325 l-8
46 103 -90 c57 -49 131 -120 166 -157z"/>
</g>
</svg>
